<?xml version="1.0" standalone="no"?><!DOCTYPE svg PUBLIC "-//W3C//DTD SVG 1.1//EN" "http://www.w3.org/Graphics/SVG/1.1/DTD/svg11.dtd"><svg t="1563429349037" class="icon" viewBox="0 0 1024 1024" version="1.1" xmlns="http://www.w3.org/2000/svg" p-id="2008" xmlns:xlink="http://www.w3.org/1999/xlink" width="200" height="200"><defs><style type="text/css"></style></defs><path d="M449.7 772.81c-37.36 0-69.61-11.94-92-34.37L297 678.92l-62.27-62.29a34.62 34.62 0 0 1 0-49l79.84-78.17 224.2-225.87a34.7 34.7 0 0 1 49 0L784.82 459a34.7 34.7 0 0 1 0 49L614 680.55l-53.33 53.34c-19.8 19.79-56.83 34.76-94.33 38.15q-8.48 0.77-16.64 0.77z m-149.23-97.46l60.71 59.54c33.23 33.23 79.84 34.42 104.67 32.18 35.29-3.19 70-16.83 89.44-35l-239-237.34-78.09 76.46a29.63 29.63 0 0 0 0 41.88l62.24 62.26z m19.36-184.14l239 237.38 51.6-51.59 170.86-172.52a29.69 29.69 0 0 0 0-41.9L584.17 267.13a29.69 29.69 0 0 0-41.91 0z" fill="" p-id="2009"></path><path d="M511.824 288.198l250.054 250.054L558.79 741.34 308.736 491.286z" fill="#FFF200" p-id="2010"></path><path d="M560.56 743.12H557L307 493.06v-3.54l203.06-203.08h3.54l250.05 250.05V540zM312.27 491.3l246.52 246.51 199.55-199.55-246.51-246.52z" fill="" p-id="2011"></path></svg>