<?xml version="1.0" standalone="no"?><!DOCTYPE svg PUBLIC "-//W3C//DTD SVG 1.1//EN" "http://www.w3.org/Graphics/SVG/1.1/DTD/svg11.dtd"><svg t="1562044522701" class="icon" viewBox="0 0 1024 1024" version="1.1" xmlns="http://www.w3.org/2000/svg" p-id="5716" xmlns:xlink="http://www.w3.org/1999/xlink" width="200" height="200"><defs><style type="text/css"></style></defs><path d="M296.421053 646.736842a80.572632 80.572632 0 0 0-75.991579 54.245053c8.946526 47.481263 29.103158 79.36 50.256842 102.858105 8.138105 2.775579 16.680421 4.581053 25.734737 4.581053a80.842105 80.842105 0 1 0 0-161.684211z m350.315789 80.842105a80.842105 80.842105 0 0 0 80.842105 80.842106c9.054316 0 17.596632-1.805474 25.734737-4.581053 21.153684-23.498105 41.337263-55.403789 50.256842-102.858105A80.572632 80.572632 0 0 0 727.578947 646.736842a80.842105 80.842105 0 0 0-80.842105 80.842105z m160.498526-296.421052H488.474947c-3.772632-16.384-3.422316-32.579368-3.422315-42.657684V162.869895c8.865684-0.646737 17.785263-1.185684 26.947368-1.185684 165.376 0 283.297684 109.514105 295.235368 269.473684z" fill="#5face7" p-id="5717" data-spm-anchor-id="a313x.7781069.0.i6" class="selected"></path><path d="M590.928842 592.842105c0-41.822316 13.985684-53.894737 28.860632-53.894737s28.860632 12.072421 28.860631 53.894737-13.958737 53.894737-28.860631 53.894737-28.860632-12.072421-28.860632-53.894737zM512 808.421053c44.570947 0 80.842105-36.271158 80.842105-80.842106v-26.947368h-53.894737v26.947368a26.974316 26.974316 0 0 1-53.894736 0v-26.947368h-53.894737v26.947368c0 44.570947 36.271158 80.842105 80.842105 80.842106z m-107.789474-269.473685c-14.874947 0-28.860632 12.072421-28.860631 53.894737s13.985684 53.894737 28.860631 53.894737 28.860632-12.072421 28.860632-53.894737-13.985684-53.894737-28.860632-53.894737z m512-26.947368v94.315789a94.423579 94.423579 0 0 1-112.181894 92.645053c-11.075368 61.844211-41.229474 97.630316-68.20379 122.691369C685.109895 868.729263 596.264421 916.210526 512 916.210526c-84.264421 0-173.136842-47.481263-223.824842-94.558315-26.974316-25.061053-57.128421-60.847158-68.230737-122.718316A94.423579 94.423579 0 0 1 107.789474 606.315789V512a80.949895 80.949895 0 0 1 108.43621-75.991579c1.239579-20.48 4.419368-40.016842 8.973474-58.745263H686.08a212.614737 212.614737 0 0 1 12.907789 53.894737h-154.543157c9.970526 26.758737 30.962526 52.170105 40.528842 61.817263l-38.130527 38.076631c-5.389474-5.389474-46.484211-48.128-58.368-99.893894h-217.6c-0.835368 8.973474-1.401263 17.946947-1.401263 26.947368v188.631579c0 74.024421 27.998316 109.999158 55.40379 135.437474C366.430316 820.762947 442.718316 862.315789 512 862.315789c69.254737 0 145.542737-41.552842 187.122526-80.141473C726.528 756.736 754.526316 720.734316 754.526316 646.736842v-188.631579c0-120.724211-74.994526-242.526316-242.526316-242.526316-101.968842 0-169.391158 45.244632-206.686316 107.789474H243.819789c36.325053-78.955789 105.498947-134.602105 195.125895-154.058105A80.303158 80.303158 0 0 1 431.157895 134.736842c0-44.570947 36.271158-80.842105 80.842105-80.842105a80.949895 80.949895 0 0 1 73.081263 115.415579c127.811368 27.755789 214.339368 128.943158 222.693053 266.698105A80.949895 80.949895 0 0 1 916.210526 512zM538.947368 134.736842c0-14.848-12.099368-26.947368-26.947368-26.947368s-26.947368 12.099368-26.947368 26.947368 12.099368 26.947368 26.947368 26.947369 26.947368-12.099368 26.947368-26.947369zM215.578947 512c0-14.848-12.099368-26.947368-26.947368-26.947368s-26.947368 12.099368-26.947368 26.947368v94.315789a40.474947 40.474947 0 0 0 53.894736 38.130527V512z m646.736842 0a26.974316 26.974316 0 0 0-53.894736 0v132.473263a40.474947 40.474947 0 0 0 53.894736-38.157474V512z" fill="#231F20" p-id="5718"></path></svg>