<?xml version="1.0" standalone="no"?><!DOCTYPE svg PUBLIC "-//W3C//DTD SVG 1.1//EN" "http://www.w3.org/Graphics/SVG/1.1/DTD/svg11.dtd"><svg t="1563429677363" class="icon" viewBox="0 0 1024 1024" version="1.1" xmlns="http://www.w3.org/2000/svg" p-id="1143" xmlns:xlink="http://www.w3.org/1999/xlink" width="200" height="200"><defs><style type="text/css"></style></defs><path d="M688.67 837.07a95 95 0 0 1-16.05-1.34c-1.7-0.27-3.47-0.63-4.81-0.91a101.64 101.64 0 0 1-50.58-27.37c-1.18-1.18-2.27-2.36-3.33-3.49a99.56 99.56 0 0 1-22.06-39.17l-41.43-139 1.68-3.11 1.94-0.58-14.4-22.37a28.49 28.49 0 0 0-24-13.1h-0.41a46.89 46.89 0 0 1-44.65-33.29L402.4 324.2A55.07 55.07 0 0 1 508 292.82l93.68 315 7-2.09 3.11 1.68 8 26.87a17.06 17.06 0 0 0 9.67 11 18.18 18.18 0 0 0 15.19-0.29 95.51 95.51 0 0 1 15.21-5.85 101 101 0 0 1 57.57 193.67 99.64 99.64 0 0 1-28.76 4.26zM555.91 626.71l40.72 136.65a94.58 94.58 0 0 0 20.94 37.21c1 1.08 2.06 2.22 3.18 3.33a96.63 96.63 0 0 0 48.09 26c1.28 0.27 3 0.62 4.59 0.87a90.09 90.09 0 0 0 15.24 1.27A94.68 94.68 0 0 0 716 828a96 96 0 1 0-54.74-184.08 90.67 90.67 0 0 0-14.44 5.55 23.16 23.16 0 0 1-19.35 0.36A22 22 0 0 1 615 635.76l-7.27-24.47-7 2.09-3.11-1.68-94.44-317.45a50.07 50.07 0 1 0-96 28.54l68.14 229.08a41.86 41.86 0 0 0 39.85 29.72h0.41A33.48 33.48 0 0 1 543.83 597L560 622.14l-1.39 3.75z" fill="" p-id="1144"></path><path d="M688.67 837.07a95 95 0 0 1-16.05-1.34c-1.7-0.27-3.47-0.63-4.81-0.91a101.64 101.64 0 0 1-50.58-27.37c-1.17-1.17-2.26-2.34-3.31-3.47a99.58 99.58 0 0 1-22.08-39.19l-41.44-139 1.68-3.11 1.94-0.58-14.4-22.37a28.5 28.5 0 0 0-24-13.1H512a28.5 28.5 0 0 0-23.88 12.88l-14.53 22.09 1.79 0.55 1.66 3.13-42.66 138.63a99.2 99.2 0 0 1-22.38 38.9c-1.09 1.17-2.26 2.35-3.4 3.48a101 101 0 0 1-50.85 26.9c-1.4 0.3-2.86 0.53-4.27 0.75l-0.5 0.08a77.37 77.37 0 0 1-15.17 1.34 99.9 99.9 0 0 1-29.64-4.51A101 101 0 0 1 367.6 637.7a98.29 98.29 0 0 1 15.12 6 18.15 18.15 0 0 0 15.16 0.42 17 17 0 0 0 9.74-10.87l8.23-26.8 3.12-1.66 7.09 2.18 30.74-99.89-54.4-182.88A55.07 55.07 0 0 1 508 292.82l7.26 24.41 7.49-24.35A55.06 55.06 0 0 1 628 325.29l-56.1 182.4 29.79 100.18 7-2.09 3.11 1.68 8 26.87a17.06 17.06 0 0 0 9.67 11 18.18 18.18 0 0 0 15.19-0.29 95.61 95.61 0 0 1 15.21-5.85 101.1 101.1 0 0 1 125.6 68 101.22 101.22 0 0 1-96.75 129.88zM555.91 626.71l40.72 136.65a94.58 94.58 0 0 0 20.94 37.21c1 1.1 2.08 2.23 3.18 3.33a96.63 96.63 0 0 0 48.09 26c1.28 0.27 3 0.62 4.59 0.87a90.11 90.11 0 0 0 15.24 1.27 96 96 0 1 0-27.46-188.12 90.69 90.69 0 0 0-14.44 5.55 23.16 23.16 0 0 1-19.35 0.36A22 22 0 0 1 615 635.76l-7.27-24.47-7 2.09-3.11-1.68-30.72-103.3v-1.45l56.32-183.12a50.06 50.06 0 0 0-95.68-29.46l-9.92 32.25h-4.79l-9.61-32.33a50.07 50.07 0 1 0-96 28.54l54.61 183.61v1.45l-31.7 103-3.13 1.61-7.09-2.18-7.49 24.39a22 22 0 0 1-12.55 14 23.17 23.17 0 0 1-19.36-0.54 93.28 93.28 0 0 0-14.36-5.71 96 96 0 1 0-28.35 187.9 72.4 72.4 0 0 0 14.2-1.26l0.65-0.11c1.35-0.21 2.74-0.43 4-0.7A96 96 0 0 0 405 802.73c1.08-1.08 2.23-2.22 3.25-3.33a94.24 94.24 0 0 0 21.26-37l41.92-136.25-2.59-0.79-1.35-3.76L484 596.71a33.48 33.48 0 0 1 28-15.13H515.58A33.48 33.48 0 0 1 543.83 597L560 622.14l-1.39 3.75z" fill="" p-id="1145"></path><path d="M514.29 531.89a24.56 24.56 0 1 1 17.37-7.18 24.59 24.59 0 0 1-17.39 7.18z m0-44.14a19.58 19.58 0 0 0-19.56 19.56 19.58 19.58 0 0 0 19.54 19.58 19.57 19.57 0 0 0 0-39.14z m-22.06 19.56z" fill="" p-id="1146"></path><path d="M638.68 736a49.9 49.9 0 0 0 99.81 0.06V736a49.9 49.9 0 0 0-99.81-0.06z" fill="#FFF200" p-id="1147"></path><path d="M688.58 788.42a52.46 52.46 0 0 1-52.4-52.42v-0.06a52.4 52.4 0 0 1 52.4-52.37 52.43 52.43 0 0 1 0 104.87z m0-99.87a47.4 47.4 0 0 0-47.4 47.37v0.08a47.46 47.46 0 0 0 47.37 47.43 47.43 47.43 0 0 0 0-94.87zM638.68 736z" fill="" p-id="1148"></path><path d="M288 734.27a49.9 49.9 0 0 0 99.81 0 49.9 49.9 0 0 0-99.81 0z" fill="#FFF200" p-id="1149"></path><path d="M337.88 786.69a52.41 52.41 0 1 1 52.42-52.42 52.06 52.06 0 0 1-52.44 52.42z m0-99.82a47.46 47.46 0 0 0-47.4 47.4 47.4 47.4 0 0 0 47.39 47.42 47.41 47.41 0 0 0 0-94.82zM288 734.27z" fill="" p-id="1150"></path></svg>